<svg width="66" height="65" viewBox="0 0 66 65" fill="none" xmlns="http://www.w3.org/2000/svg">
<g clip-path="url(#clip0_4_607)">
<path d="M1.00002 8.91003V40.91C1.00002 43.1184 1.78127 45.0038 3.34377 46.5663C4.90627 48.1288 6.79169 48.91 9.00002 48.91H19C19.6667 48.91 20.2709 49.0559 20.8125 49.3475C21.3542 49.6392 21.8125 50.035 22.1875 50.535L29.8125 60.66C30.1875 61.1184 30.6459 61.4934 31.1875 61.785C31.7292 62.0767 32.3334 62.2225 33 62.2225C33.6667 62.2225 34.2709 62.0767 34.8125 61.785C35.3542 61.4934 35.8125 61.1184 36.1875 60.66L43.8125 50.4725C44.1875 50.0142 44.6459 49.6392 45.1875 49.3475C45.7292 49.0559 46.3334 48.91 47 48.91H57C59.2084 48.91 61.0938 48.1288 62.6563 46.5663C64.2188 45.0038 65 43.1184 65 40.91V8.91003C65 6.7017 64.2188 4.81628 62.6563 3.25378C61.0938 1.69128 59.2084 0.910034 57 0.910034H9.00002C6.79169 0.910034 4.90627 1.69128 3.34377 3.25378C1.78127 4.81628 1.00002 6.7017 1.00002 8.91003ZM29.75 19.9725C29.9584 20.2225 30.1354 20.483 30.2813 20.7538C30.4271 21.0246 30.5625 21.3059 30.6875 21.5975C31.5209 23.4725 31.7709 25.7434 31.4375 28.41C31.1042 31.0767 29.6042 33.7434 26.9375 36.41C26.7709 36.5767 26.5834 36.7017 26.375 36.785C26.1667 36.8684 25.9375 36.91 25.6875 36.91C25.4375 36.91 25.2084 36.8684 25 36.785C24.7917 36.7017 24.6042 36.5767 24.4375 36.41V36.4725C24.3125 36.3059 24.1979 36.1184 24.0938 35.91C23.9896 35.7017 23.9375 35.4725 23.9375 35.2225C23.9375 35.0142 23.9792 34.8059 24.0625 34.5975C24.1459 34.3892 24.2709 34.2225 24.4375 34.0975C25.2709 33.2642 25.9479 32.4309 26.4688 31.5975C26.9896 30.7642 27.3959 29.9725 27.6875 29.2225C27.1459 29.5559 26.5521 29.8059 25.9063 29.9725C25.2604 30.1392 24.6042 30.2225 23.9375 30.2225C22.0209 30.2225 20.3854 29.5767 19.0313 28.285C17.6771 26.9934 17 25.4309 17 23.5975C17 21.7642 17.6771 20.1913 19.0313 18.8788C20.3854 17.5663 22.0209 16.91 23.9375 16.91C24.4792 16.91 25 16.9725 25.5 17.0975C26 17.2225 26.4792 17.3892 26.9375 17.5975H27C27.3334 17.7225 27.6563 17.8996 27.9688 18.1288C28.2813 18.358 28.5834 18.6184 28.875 18.91C29.0417 19.0767 29.1979 19.2434 29.3438 19.41C29.4896 19.5767 29.625 19.7642 29.75 19.9725ZM45 29.2225C44.4584 29.5559 43.875 29.8059 43.25 29.9725C42.625 30.1392 41.9584 30.2225 41.25 30.2225C39.3334 30.2225 37.6979 29.5767 36.3438 28.285C34.9896 26.9934 34.3125 25.4309 34.3125 23.5975C34.3125 21.7642 34.9896 20.1913 36.3438 18.8788C37.6979 17.5663 39.3334 16.91 41.25 16.91C41.7917 16.91 42.3229 16.9725 42.8438 17.0975C43.3646 17.2225 43.8542 17.3892 44.3125 17.5975C44.6459 17.7225 44.9792 17.8996 45.3125 18.1288C45.6459 18.358 45.9375 18.6184 46.1875 18.91C46.3542 19.0767 46.5209 19.2434 46.6875 19.41C46.8542 19.5767 47 19.7642 47.125 19.9725C47.2917 20.2225 47.4479 20.483 47.5938 20.7538C47.7396 21.0246 47.875 21.3059 48 21.5975C48.875 23.4725 49.1354 25.7434 48.7813 28.41C48.4271 31.0767 46.9167 33.7434 44.25 36.41C44.0834 36.5767 43.8959 36.7017 43.6875 36.785C43.4792 36.8684 43.25 36.91 43 36.91C42.7917 36.91 42.5834 36.8684 42.375 36.785C42.1667 36.7017 41.9792 36.5767 41.8125 36.41V36.4725C41.6459 36.3059 41.5104 36.1184 41.4063 35.91C41.3021 35.7017 41.25 35.4725 41.25 35.2225C41.25 35.0142 41.3021 34.8059 41.4063 34.5975C41.5104 34.3892 41.625 34.2225 41.75 34.0975C42.5834 33.2642 43.2604 32.4309 43.7813 31.5975C44.3021 30.7642 44.7084 29.9725 45 29.2225Z" fill="#6138BD"/>
</g>
<defs>
<clipPath id="clip0_4_607">
<rect width="64.2" height="64" fill="white" transform="matrix(1 0 0 -1 0.900024 64.91)"/>
</clipPath>
</defs>
</svg>
